<svg xmlns="http://www.w3.org/2000/svg" viewBox="0 0 128 128" role="img" aria-label="Մեջբերումներ Աստվածաշնչից logo — open book with citation marks">
  <defs>
    <linearGradient id="o1-page" x1="0%" y1="0%" x2="0%" y2="100%">
      <stop offset="0%" stop-color="#fbf9f8"/>
      <stop offset="100%" stop-color="#d4e3ff"/>
    </linearGradient>
  </defs>

  <ellipse cx="64" cy="110" rx="40" ry="6" fill="#021a35" opacity="0.12"/>

  <!-- Left page -->
  <path
    d="M64 28 C50 33 28 36 20 36 C18.3 36 17 37.5 17 39.5 V94 C17 96.8 19.2 99 22 99 C38 99 52 95 64 88 Z"
    fill="url(#o1-page)"
    stroke="#021a35"
    stroke-width="2.75"
    stroke-linejoin="round"
  />
  <!-- Right page -->
  <path
    d="M64 28 C78 33 100 36 108 36 C109.7 36 111 37.5 111 39.5 V94 C111 96.8 108.8 99 106 99 C90 99 76 95 64 88 Z"
    fill="url(#o1-page)"
    stroke="#021a35"
    stroke-width="2.75"
    stroke-linejoin="round"
  />

  <!-- Spine -->
  <path d="M64 28 V88" stroke="#021a35" stroke-width="3.5" stroke-linecap="round"/>

  <!-- Opening quotes (left page) -->
  <g fill="#fed65b" transform="translate(30 46)">
    <path d="M4 6a7 7 0 1 1 0 10.5V22H0V14.5A7 7 0 0 1 4 6Zm16 0a7 7 0 1 1 0 10.5V22h-4V14.5A7 7 0 0 1 20 6Z"/>
  </g>

  <!-- Closing quotes (right page) -->
  <g fill="#fed65b" transform="translate(78 58)">
    <path d="M8 20a7 7 0 1 1 0-10.5V4h4v7.5A7 7 0 0 1 8 20Zm16 0a7 7 0 1 1 0-10.5V4h4v7.5A7 7 0 0 1 24 20Z"/>
  </g>

  <!-- Soft text lines -->
  <g stroke="#021a35" stroke-width="1.5" stroke-linecap="round" opacity="0.2">
    <line x1="26" y1="78" x2="50" y2="76"/>
    <line x1="26" y1="85" x2="46" y2="83.5"/>
    <line x1="78" y1="78" x2="102" y2="76"/>
    <line x1="82" y1="85" x2="102" y2="83.5"/>
  </g>
</svg>
